<mxfile host="65bd71144e">
    <diagram id="zMrbwZJyfFvb5mVvIrCk" name="로그인 프로세스">
        <mxGraphModel dx="798" dy="860" grid="1" gridSize="10" guides="1" tooltips="1" connect="1" arrows="1" fold="1" page="1" pageScale="1" pageWidth="1169" pageHeight="827" math="0" shadow="0">
            <root>
                <mxCell id="0"/>
                <mxCell id="1" parent="0"/>
                <mxCell id="20" value="" style="whiteSpace=wrap;html=1;" parent="1" vertex="1">
                    <mxGeometry x="140" y="114" width="830" height="600" as="geometry"/>
                </mxCell>
                <mxCell id="8" style="edgeStyle=none;html=1;exitX=0.5;exitY=1;exitDx=0;exitDy=0;entryX=0.5;entryY=0;entryDx=0;entryDy=0;" parent="1" source="2" target="3" edge="1">
                    <mxGeometry relative="1" as="geometry"/>
                </mxCell>
                <mxCell id="2" value="로그인 버튼 클릭" style="whiteSpace=wrap;html=1;" parent="1" vertex="1">
                    <mxGeometry x="470" y="224" width="160" height="60" as="geometry"/>
                </mxCell>
                <mxCell id="9" style="edgeStyle=none;html=1;exitX=0.5;exitY=1;exitDx=0;exitDy=0;entryX=0.5;entryY=0;entryDx=0;entryDy=0;" parent="1" source="3" target="5" edge="1">
                    <mxGeometry relative="1" as="geometry"/>
                </mxCell>
                <mxCell id="10" style="edgeStyle=none;html=1;exitX=1;exitY=0.5;exitDx=0;exitDy=0;entryX=1;entryY=0.5;entryDx=0;entryDy=0;" parent="1" source="3" target="2" edge="1">
                    <mxGeometry relative="1" as="geometry">
                        <Array as="points">
                            <mxPoint x="700" y="314"/>
                        </Array>
                    </mxGeometry>
                </mxCell>
                <mxCell id="3" value="스포티파이 상에서 로그인" style="whiteSpace=wrap;html=1;" parent="1" vertex="1">
                    <mxGeometry x="470" y="334" width="160" height="60" as="geometry"/>
                </mxCell>
                <mxCell id="15" style="edgeStyle=none;html=1;exitX=0;exitY=1;exitDx=0;exitDy=0;entryX=0.5;entryY=0;entryDx=0;entryDy=0;" parent="1" source="5" target="6" edge="1">
                    <mxGeometry relative="1" as="geometry"/>
                </mxCell>
                <mxCell id="16" style="edgeStyle=none;html=1;exitX=1;exitY=1;exitDx=0;exitDy=0;entryX=0.5;entryY=0;entryDx=0;entryDy=0;" parent="1" source="5" target="7" edge="1">
                    <mxGeometry relative="1" as="geometry"/>
                </mxCell>
                <mxCell id="5" value="첫 로그인인가?" style="rhombus;whiteSpace=wrap;html=1;" parent="1" vertex="1">
                    <mxGeometry x="460" y="454" width="180" height="80" as="geometry"/>
                </mxCell>
                <mxCell id="6" value="필터 선택 페이지로 이동" style="whiteSpace=wrap;html=1;" parent="1" vertex="1">
                    <mxGeometry x="240" y="584" width="160" height="61" as="geometry"/>
                </mxCell>
                <mxCell id="7" value="음악 추천 리스트 페이지로 이동" style="whiteSpace=wrap;html=1;" parent="1" vertex="1">
                    <mxGeometry x="720" y="584" width="170" height="60" as="geometry"/>
                </mxCell>
                <mxCell id="13" value="실패" style="text;html=1;align=center;verticalAlign=middle;resizable=0;points=[];autosize=1;strokeColor=none;fillColor=none;" parent="1" vertex="1">
                    <mxGeometry x="700" y="304" width="40" height="20" as="geometry"/>
                </mxCell>
                <mxCell id="14" value="성공" style="text;html=1;align=center;verticalAlign=middle;resizable=0;points=[];autosize=1;strokeColor=none;fillColor=none;" parent="1" vertex="1">
                    <mxGeometry x="560" y="414" width="40" height="20" as="geometry"/>
                </mxCell>
                <mxCell id="21" value="로그인 프로세스" style="whiteSpace=wrap;html=1;" parent="1" vertex="1">
                    <mxGeometry x="190" y="90" width="120" height="60" as="geometry"/>
                </mxCell>
            </root>
        </mxGraphModel>
    </diagram>
    <diagram id="GD3628ZRXJBjzCOBNTsg" name="필터 페이지 프로세스">
        <mxGraphModel dx="579" dy="680" grid="1" gridSize="10" guides="1" tooltips="1" connect="1" arrows="1" fold="1" page="1" pageScale="1" pageWidth="1169" pageHeight="827" math="0" shadow="0">
            <root>
                <mxCell id="LTLgvE6VIeZBKtfY9y1N-0"/>
                <mxCell id="LTLgvE6VIeZBKtfY9y1N-1" parent="LTLgvE6VIeZBKtfY9y1N-0"/>
                <mxCell id="LTLgvE6VIeZBKtfY9y1N-4" style="edgeStyle=none;html=1;entryX=0.5;entryY=0;entryDx=0;entryDy=0;" parent="LTLgvE6VIeZBKtfY9y1N-1" source="LTLgvE6VIeZBKtfY9y1N-2" target="LTLgvE6VIeZBKtfY9y1N-3" edge="1">
                    <mxGeometry relative="1" as="geometry"/>
                </mxCell>
                <mxCell id="LTLgvE6VIeZBKtfY9y1N-2" value="필터 옵션 선택창 띄움&lt;br&gt;(팝업 형태?)" style="whiteSpace=wrap;html=1;" parent="LTLgvE6VIeZBKtfY9y1N-1" vertex="1">
                    <mxGeometry x="410" y="200" width="130" height="40" as="geometry"/>
                </mxCell>
                <mxCell id="LTLgvE6VIeZBKtfY9y1N-3" value="해당 필터를 저장해서&lt;br&gt;필터 목록에서 보여줌" style="whiteSpace=wrap;html=1;" parent="LTLgvE6VIeZBKtfY9y1N-1" vertex="1">
                    <mxGeometry x="410" y="340" width="130" height="40" as="geometry"/>
                </mxCell>
                <mxCell id="LTLgvE6VIeZBKtfY9y1N-5" value="저장 버튼 클릭" style="text;html=1;align=center;verticalAlign=middle;resizable=0;points=[];autosize=1;strokeColor=none;fillColor=none;" parent="LTLgvE6VIeZBKtfY9y1N-1" vertex="1">
                    <mxGeometry x="480" y="280" width="80" height="20" as="geometry"/>
                </mxCell>
                <mxCell id="n2Hmciz8iZmXRgz-xLHV-1" style="edgeStyle=none;html=1;" parent="LTLgvE6VIeZBKtfY9y1N-1" source="n2Hmciz8iZmXRgz-xLHV-0" target="LTLgvE6VIeZBKtfY9y1N-2" edge="1">
                    <mxGeometry relative="1" as="geometry"/>
                </mxCell>
                <mxCell id="n2Hmciz8iZmXRgz-xLHV-0" value="필터 추가 버튼 클릭" style="whiteSpace=wrap;html=1;" parent="LTLgvE6VIeZBKtfY9y1N-1" vertex="1">
                    <mxGeometry x="410" y="90" width="130" height="40" as="geometry"/>
                </mxCell>
            </root>
        </mxGraphModel>
    </diagram>
    <diagram id="FYlaTSoQciWlox_8-BHD" name="추천받은 신곡 페이지">
        <mxGraphModel dx="579" dy="680" grid="1" gridSize="10" guides="1" tooltips="1" connect="1" arrows="1" fold="1" page="1" pageScale="1" pageWidth="1169" pageHeight="827" math="0" shadow="0">
            <root>
                <mxCell id="zd2PvgO0qa2nfKLKV2Sr-0"/>
                <mxCell id="zd2PvgO0qa2nfKLKV2Sr-1" parent="zd2PvgO0qa2nfKLKV2Sr-0"/>
                <mxCell id="zd2PvgO0qa2nfKLKV2Sr-2" value="추천받은 신곡 목록을 보여줌" style="whiteSpace=wrap;html=1;" vertex="1" parent="zd2PvgO0qa2nfKLKV2Sr-1">
                    <mxGeometry x="260" y="110" width="190" height="50" as="geometry"/>
                </mxCell>
                <mxCell id="zd2PvgO0qa2nfKLKV2Sr-3" value="목록 클릭 시&amp;nbsp;&lt;br&gt;" style="whiteSpace=wrap;html=1;" vertex="1" parent="zd2PvgO0qa2nfKLKV2Sr-1">
                    <mxGeometry x="260" y="250" width="190" height="50" as="geometry"/>
                </mxCell>
            </root>
        </mxGraphModel>
    </diagram>
</mxfile>